<?xml version="1.0" encoding="UTF-8"?>
<svg id="Layer_2" data-name="Layer 2" xmlns="http://www.w3.org/2000/svg" xmlns:xlink="http://www.w3.org/1999/xlink" viewBox="0 0 403.83 403.83">
  <defs>
    <style>
      .cls-1 {
        fill: url(#linear-gradient-2);
      }

      .cls-2 {
        fill: #fff;
      }

      .cls-3 {
        clip-path: url(#clippath-2);
      }

      .cls-4 {
        fill: none;
        stroke: #fff;
        stroke-miterlimit: 10;
        stroke-width: 8px;
      }

      .cls-5 {
        filter: url(#drop-shadow-1);
      }

      .cls-6 {
        clip-path: url(#clippath-1);
      }

      .cls-7 {
        clip-path: url(#clippath);
      }

      .cls-8 {
        fill: url(#linear-gradient);
      }
    </style>
    <filter id="drop-shadow-1" filterUnits="userSpaceOnUse">
      <feOffset dx="14.17" dy="17.01"/>
      <feGaussianBlur result="blur" stdDeviation="8.5"/>
      <feFlood flood-color="#000" flood-opacity=".75"/>
      <feComposite in2="blur" operator="in"/>
      <feComposite in="SourceGraphic"/>
    </filter>
    <linearGradient id="linear-gradient" x1="0" y1="201.91" x2="403.83" y2="201.91" gradientUnits="userSpaceOnUse">
      <stop offset="0" stop-color="#4d5283"/>
      <stop offset="1" stop-color="#e17575"/>
    </linearGradient>
    <clipPath id="clippath">
      <rect class="cls-8" width="403.83" height="403.83" rx="120.95" ry="120.95"/>
    </clipPath>
    <linearGradient id="linear-gradient-2" x1="-207.19" y1="1982.65" x2="921.54" y2="1412.76" gradientTransform="translate(-446.88 -1363.26)" gradientUnits="userSpaceOnUse">
      <stop offset=".29" stop-color="#613e6b"/>
      <stop offset=".32" stop-color="#6f446c"/>
      <stop offset=".43" stop-color="#985770"/>
      <stop offset=".53" stop-color="#b96673"/>
      <stop offset=".64" stop-color="#d37275"/>
      <stop offset=".75" stop-color="#e57b77"/>
      <stop offset=".87" stop-color="#f08078"/>
      <stop offset="1" stop-color="#f48279"/>
    </linearGradient>
    <clipPath id="clippath-1">
      <path class="cls-2" d="m222.39,171.25s0,.08,0,.12v86.88c0,8.12-6.61,14.77-14.72,14.82l-11.32.07h-.1c-3.94,0-7.64-1.53-10.44-4.31-2.82-2.8-4.37-6.53-4.37-10.51v-86.49c0-.2.02-.39.02-.59h-27.02c0,.18-.01.36-.01.54h0v86.53c0,11.22,4.38,21.76,12.35,29.67,7.9,7.85,18.36,12.16,29.48,12.16h.27l11.32-.07c22.92-.15,41.57-18.91,41.57-41.83v-86.88s0-.08,0-.12h-27.02Z"/>
    </clipPath>
    <clipPath id="clippath-2">
      <path class="cls-2" d="m244.16,94.14h-10.81c-10.63,0-21.16,2.21-30.9,6.37-10.04-4.47-20.97-6.84-31.98-6.84h-10.81c-43.52,0-78.93,35.41-78.93,78.93v127.09h27.01v-127.09c0-28.63,23.29-51.92,51.92-51.92h10.81c1.27,0,2.54.06,3.81.16,0,.01-.02.02-.03.03,4.25.44,10.05,1.5,16.45,4.22,4.79,2.03,8.62,4.43,11.5,6.54,2.72-2.07,6.43-4.46,11.14-6.45,6.71-2.82,12.77-3.68,16.94-3.92,1.02-.06,2.04-.1,3.06-.1h10.81c28.63,0,51.92,23.29,51.92,51.92v127.09h27.01v-127.09c0-43.52-35.41-78.93-78.93-78.93Z"/>
    </clipPath>
  </defs>
  <g id="Layer_1-2" data-name="Layer 1">
    <g>
      <g class="cls-5">
        <rect class="cls-8" width="403.83" height="403.83" rx="120.95" ry="120.95"/>
        <g class="cls-7">
          <rect class="cls-1" x="-563.96" y="-104.13" width="1264.43" height="717.65" transform="translate(196.73 484.96) rotate(165.84)"/>
        </g>
      </g>
      <g>
        <g>
          <path class="cls-2" d="m222.39,171.25s0,.08,0,.12v86.88c0,8.12-6.61,14.77-14.72,14.82l-11.32.07h-.1c-3.94,0-7.64-1.53-10.44-4.31-2.82-2.8-4.37-6.53-4.37-10.51v-86.49c0-.2.02-.39.02-.59h-27.02c0,.18-.01.36-.01.54h0v86.53c0,11.22,4.38,21.76,12.35,29.67,7.9,7.85,18.36,12.16,29.48,12.16h.27l11.32-.07c22.92-.15,41.57-18.91,41.57-41.83v-86.88s0-.08,0-.12h-27.02Z"/>
          <g class="cls-6">
            <rect class="cls-2" x="-143.49" y="44.18" width="626.05" height="355.33"/>
          </g>
        </g>
        <g>
          <path class="cls-2" d="m244.16,94.14h-10.81c-10.63,0-21.16,2.21-30.9,6.37-10.04-4.47-20.97-6.84-31.98-6.84h-10.81c-43.52,0-78.93,35.41-78.93,78.93v127.09h27.01v-127.09c0-28.63,23.29-51.92,51.92-51.92h10.81c1.27,0,2.54.06,3.81.16,0,.01-.02.02-.03.03,4.25.44,10.05,1.5,16.45,4.22,4.79,2.03,8.62,4.43,11.5,6.54,2.72-2.07,6.43-4.46,11.14-6.45,6.71-2.82,12.77-3.68,16.94-3.92,1.02-.06,2.04-.1,3.06-.1h10.81c28.63,0,51.92,23.29,51.92,51.92v127.09h27.01v-127.09c0-43.52-35.41-78.93-78.93-78.93Z"/>
          <g class="cls-3">
            <rect class="cls-2" x="-143.49" y="45.42" width="626.05" height="355.33"/>
          </g>
        </g>
      </g>
      <circle class="cls-4" cx="201.91" cy="204.91" r="185.48"/>
    </g>
  </g>
</svg>